<?xml version="1.0" encoding="UTF-8"?>
<svg id="Layer_1" data-name="Layer 1" xmlns="http://www.w3.org/2000/svg" viewBox="0 0 654.59 778.27">
  <defs>
    <style>
      .cls-1 {
        fill: none;
        stroke: #000;
        stroke-linecap: round;
        stroke-miterlimit: 10;
        stroke-width: 16px;
      }

      .cls-2 {
        fill: #000;
        stroke-width: 0px;
      }
    </style>
  </defs>
  <g id="z45xlD">
    <path class="cls-2" d="M362.67,221.86c0-18.58.14-36.57-.03-54.56-.29-30.47-18.75-52.05-44.41-52.21-27.22-.16-44.65,19.35-45.26,50.69-.32,16.57-.57,33.15-1.06,49.71-.05,1.59-.31,4.31-.31,6.31.47,11.08-.22,14.91,0,26,0,2,.62,8.28.66,9.54,1.3,50.53,1.12,101.12.52,151.67-.05,4.49-5.7,11.72-9.79,12.54-4.02.81-11.09-3.8-13.8-7.99-10.21-15.78-17.44-33.78-29.16-48.21-10-12.32-23.37-23.4-37.51-30.49-19.21-9.64-50.56-1.81-60.48,11.9-13.67,18.89,1.68,32.67,9.79,46.84,34.41,60.12,69.85,119.65,104.34,179.72,42.75,74.48,106,107.16,191.72,97.39,81.51-9.3,154.71-86.02,156.48-167.3,1.18-54.32.16-108.68.1-163.03-.02-20.48-9.3-35.93-29.15-40.47-13.67-3.12-28.64-.6-45.68-.6-13.99-32.16-42.07-34.72-74.59-21.99-16.44-29.29-42.05-33.27-72.44-27.53M363.2,243.98,567.79,490.89c-1.05,76.83-52.45,140.7-128.6,160.75-68.12,17.94-145.62-14.74-182.56-77.8-38.46-65.66-76.32-131.67-114.3-197.61-10.06-17.46-7.1-23.2,12.99-26.92,19.87-3.68,39.92,6.98,52.27,28.04,9.53,16.25,17.04,34.11,28.9,48.38,6.94,8.35,23.17,17.58,30.72,14.68,9.77-3.75,20.65-18.86,21.29-29.66,2.45-41.37.99-82.97.99-124.49h.13c0-39.25.13-78.5-.06-117.75-.09-18.84,5.55-33.11,26.98-34.38,18.03-1.07,28.86,11.98,28.98,35.24.27,55.85.04,111.71.03,167.57,0,5.28-1.14,10.97.45,15.74.47,1.4,1.18,2.72,2.04,3.99,3.77,5.6,12.6,4.44,14.26-2.11.1-.41.17-.82.19-1.24.96-17.31.31-34.71.81-52.06.66-22.76,11.77-35.7,29.83-34.44,22.09,1.55,26,16.62,25.45,35.19-.49,16.59-.68,33.25.38,49.79.03.48.11.95.23,1.43,1.98,7.85,12.48,9.33,17.14,2.72.95-1.35,1.64-2.74,1.86-4.2,1.78-11.83,1.25-24.08.95-36.14-.45-18.06,10.54-29.3,25.79-27.02,10.4,1.55,23.46,13.57,27.26,23.89,4.94,13.39,1.23,29.79,2.64,44.77.02.23.05.46.1.69,1.35,7.04,10.86,8.62,14.8,2.64.8-1.21,1.07-1.57,1.85-2.79.34-.54.53-2.34.59-3.09,2.61-29.76,10.4-41.03,28.18-40.77,19.28.28,27.76,13.71,27.68,43.34-.12,44.53.36,89.07-.25,133.6Z"/>
  </g>
  <line class="cls-1" x1="401.59" y1="147.77" x2="568.09" y2="147.77"/>
  <line class="cls-1" x1="533.76" y1="114.11" x2="567.77" y2="148.12"/>
  <line class="cls-1" x1="567.98" y1="148.31" x2="533.96" y2="182.33"/>
  <line class="cls-1" x1="238.01" y1="147.75" x2="71.51" y2="147.75"/>
  <line class="cls-1" x1="105.84" y1="181.41" x2="71.83" y2="147.4"/>
  <line class="cls-1" x1="71.62" y1="147.21" x2="105.64" y2="113.19"/>
</svg>