<?xml version="1.0" encoding="UTF-8"?>
<svg xmlns="http://www.w3.org/2000/svg" xmlns:xlink="http://www.w3.org/1999/xlink" version="1.1" viewBox="0 0 1080 510.2">
  <defs>
    <style>
      .cls-1 {
        fill: none;
      }

      .cls-2 {
        fill: #91877d;
      }

      .cls-3 {
        letter-spacing: 0em;
      }

      .cls-3, .cls-4, .cls-5, .cls-6, .cls-7, .cls-8, .cls-9 {
        isolation: isolate;
      }

      .cls-3, .cls-5, .cls-6, .cls-10 {
        font-family: ArialMT, Arial;
        font-size: 9px;
      }

      .cls-5 {
        letter-spacing: 0em;
      }

      .cls-11 {
        letter-spacing: 0em;
      }

      .cls-12 {
        clip-path: url(#clippath-1);
      }

      .cls-13 {
        clip-path: url(#clippath-3);
      }

      .cls-14 {
        clip-path: url(#clippath-4);
      }

      .cls-15 {
        clip-path: url(#clippath-2);
      }

      .cls-16 {
        clip-path: url(#clippath-7);
      }

      .cls-17 {
        clip-path: url(#clippath-6);
      }

      .cls-18 {
        clip-path: url(#clippath-9);
      }

      .cls-19 {
        clip-path: url(#clippath-8);
      }

      .cls-20 {
        clip-path: url(#clippath-5);
      }

      .cls-21 {
        opacity: .9;
      }

      .cls-7 {
        fill: #548987;
      }

      .cls-7, .cls-9 {
        mix-blend-mode: color-burn;
        opacity: .8;
      }

      .cls-22 {
        letter-spacing: 0em;
      }

      .cls-8 {
        font-family: Arial-BoldMT, Arial;
        font-size: 13px;
        font-weight: 700;
      }

      .cls-23 {
        letter-spacing: 0em;
      }

      .cls-24 {
        clip-path: url(#clippath);
      }

      .cls-25 {
        letter-spacing: 0em;
      }

      .cls-26 {
        letter-spacing: 0em;
      }

      .cls-9 {
        fill: #dd7236;
      }
    </style>
    <clipPath id="clippath">
      <path class="cls-1" d="M525.9,206.9l-1.3,1.4-1.3,2.2-1.2,1.7-1.2,1.3s-1.2,2-1.3,3.4,0,3.8,2.2,5.5,4,1.4,4,1.4c0,0,2.8.5,5.1-2.6,2.3-3,.5-6.7.5-6.7l-1.5-2-.7-1-.4-.8-1.2-2.2-1-1.3-.5-.5h-.3Z"/>
    </clipPath>
    <clipPath id="clippath-1">
      <path class="cls-1" d="M523,340.4l-1.4,1.5-1.4,2.5-1.3,1.9-1.3,1.5s-1.4,2.2-1.5,3.8.1,4.2,2.5,6.1,4.4,1.6,4.4,1.6c0,0,3.2.5,5.7-2.9s.6-7.5.6-7.5l-1.7-2.2-.8-1.1-.5-.9-1.3-2.4-1.2-1.5-.5-.5h-.3Z"/>
    </clipPath>
    <clipPath id="clippath-2">
      <path class="cls-1" d="M380.6,385.9l-1.4,1.5-1.4,2.5-1.3,1.9-1.3,1.5s-1.4,2.2-1.5,3.8.1,4.2,2.5,6.1,4.4,1.6,4.4,1.6c0,0,3.2.5,5.7-2.9s.6-7.5.6-7.5l-1.7-2.2-.8-1.1-.5-.9-1.3-2.4-1.2-1.5-.5-.5h-.3Z"/>
    </clipPath>
    <clipPath id="clippath-3">
      <path class="cls-1" d="M886.3,429.5l-1.4,1.5-1.4,2.5-1.3,1.9-1.3,1.5s-1.4,2.2-1.5,3.8,0,4.2,2.5,6.1c2.3,1.9,4.4,1.6,4.4,1.6,0,0,3.2.5,5.7-2.9s.6-7.5.6-7.5l-1.7-2.2-.8-1.1-.5-.9-1.3-2.4-1.2-1.5-.5-.5h-.3Z"/>
    </clipPath>
    <clipPath id="clippath-4">
      <path class="cls-1" d="M325.2,204.6l-1.6,1.8-1.6,2.9-1.5,2.2-1.5,1.7s-1.6,2.5-1.7,4.3c-.1,1.8.1,4.8,2.8,7s5.1,1.9,5.1,1.9c0,0,3.6.6,6.5-3.3,2.9-3.9.7-8.6.7-8.6l-1.9-2.5-.9-1.3-.6-1-1.5-2.8-1.3-1.7-.6-.6h-.3Z"/>
    </clipPath>
    <clipPath id="clippath-5">
      <path class="cls-1" d="M294.8,245.9l-1.9,2-1.8,3.3-1.7,2.5-1.7,1.9s-1.8,2.9-1.9,5,.1,5.5,3.2,8,5.8,2.1,5.8,2.1c0,0,4.1.7,7.4-3.7,3.3-4.4.8-9.8.8-9.8l-2.2-2.9-1.1-1.5-.6-1.1-1.7-3.2-1.5-1.9-.7-.7h-.4,0Z"/>
    </clipPath>
    <clipPath id="clippath-6">
      <path class="cls-1" d="M673.9,277.6l-2,2.2-2,3.5-1.8,2.7-1.8,2.1s-1.9,3.1-2.1,5.3.1,5.9,3.4,8.6,6.2,2.3,6.2,2.3c0,0,4.4.7,8-4,3.6-4.7.8-10.5.8-10.5l-2.3-3.1-1.2-1.6-.7-1.2-1.8-3.4-1.6-2-.7-.8h-.4,0Z"/>
    </clipPath>
    <clipPath id="clippath-7">
      <path class="cls-1" d="M800.1,244.6l-2.4,2.5-2.3,4.1-2.2,3.2-2.1,2.5s-2.3,3.7-2.4,6.2.2,7,4,10.1c3.9,3.1,7.3,2.7,7.3,2.7,0,0,5.2.9,9.4-4.7,4.2-5.6,1-12.4,1-12.4l-2.8-3.6-1.3-1.8-.8-1.4-2.2-4-1.9-2.4-.8-.9h-.5Z"/>
    </clipPath>
    <clipPath id="clippath-8">
      <path class="cls-1" d="M753.9,353.9l-2.4,2.5-2.3,4.1-2.2,3.2-2.1,2.5s-2.3,3.7-2.4,6.2.2,7,4,10.1c3.9,3.1,7.3,2.7,7.3,2.7,0,0,5.2.9,9.4-4.7,4.2-5.6,1-12.4,1-12.4l-2.8-3.6-1.3-1.8-.8-1.4-2.2-4-1.9-2.4-.8-.9h-.5Z"/>
    </clipPath>
    <clipPath id="clippath-9">
      <path class="cls-1" d="M768.8,282.9l-2.9,3.1-2.8,5-2.6,3.8-2.6,3s-2.7,4.4-2.9,7.6.2,8.4,4.9,12.2c4.7,3.8,8.8,3.2,8.8,3.2,0,0,6.3,1,11.4-5.7s1.2-14.9,1.2-14.9l-3.3-4.4-1.6-2.2-1-1.8-2.6-4.9-2.3-2.9-1-1.1h-.5,0Z"/>
    </clipPath>
  </defs>
  <!-- Generator: Adobe Illustrator 28.7.2, SVG Export Plug-In . SVG Version: 1.2.0 Build 154)  -->
  <g>
    <g id="Layer_1">
      <g class="cls-4">
        <g id="Layer_1-2" data-name="Layer_1">
          <g class="cls-21">
            <path class="cls-2" d="M484.4,197.4c-.7-.3-.9-1.2-.4-1.8,1.7-1.8,2.9-3.3,4.3-3.6,7-1.5,11.5-6.4,16.4-10.9,3.6-3.2,7.2-6.5,10.2-10.2,1.2-1.5,2-3.5,2.8-5.7.4-1,1.8-.9,2.1.1.2.7.4,1.5.5,2.2.4,2.6,1.3,4.4,4.5,4.1,6.5-.6,13.1-.8,19.5-1.7,1.4-.2,2.8-3,3.5-4.8,1.1-2.9,2-5.1,5.8-4.8,3.1.3,5-1.1,5.1-4.6.1-3.8,3-5.1,6.1-6.4,1.6-.7,2.9-1.9,4.3-3.1.5-.4.5-1.2,0-1.6-1.6-1.4-3.2-3-5-3.6-2.2-.7-5-.2-7.3.4-2.8.8-4.5.3-4.2-2.7.5-5,1.3-10.1,2.3-15,.6-3.1,2.1-5.9,2.8-9,.2-1-.7-2.6-1.5-3.2-.6-.4-2.4.1-3.1.8-1.4,1.3-2.5,3.1-3.6,4.7-2.3,3.3-4.2,7.1-7,9.9-4.3,4.3-5.4,7.7-2.5,13.1,2,3.9,2.5,7.3-.6,11-2.1,2.5-3.7,5.5-5.9,9.3-.4.7-1.4.7-1.9,0-1.2-2-2.1-3.4-2.9-4.9-.9-1.7-1.5-3.7-2.5-5.3-1.3-2.1-3.2-2.6-4.9-.5-3.6,4.5-6.3,1.9-7.9-1.4-1.8-4-2.9-8.4-3.7-12.7-.7-3.6,1.1-6.5,4.5-8.1,5.8-2.9,9.1-7.8,12.2-13.4,5.3-9.3,11.6-18.2,17.4-27.2,0-.1.2-.3.3-.4,8.5-2.3,16.2-8.4,26.4-6.7.8.1,1.1,1,.8,1.6-.7,1.2-1.3,2.2-1.8,3-.3.5-.1,1.2.5,1.5,7.3,3.6,14.7,7.2,22,10.8.7.3,1.3.7,1.8,1.2,2.5,2.4,5.3,4.9,3.6,8.7-1.2,2.7-9.6,2.7-12.2.5-2-1.7-4-3.5-6.3-4.7-1.1-.5-3.6.1-4.2,1-.6,1-.3,3.7.5,4.4,3.7,3.1,5.2,6.9,6.4,11.4,1.3,5.2,4.7,4.8,8.9,1.2,4.5-3.8,8.6-9,15.5-9.2,1.2,0,2.5-.5,3.7-.8.4-.1.7-.4.8-.9.4-3.6-6.1-6.8-1.5-10.5.6-.5,1.4-.2,1.7.4.2.4.3.8.5,1.1,1.1,1.7,2,4.1,3.6,4.6,1.2.4,3.4-1.3,5-2.3,3.2-2.1,6.1-4.5,9.3-6.6.9-.6,2.4-1.2,3.3-.9,8.3,3,14.5-1.2,21-5.2,1.8-1.1,4.8-.9,7.1-.4,4.4,1,5.8-1.2,6.3-4.8.5-3.5,1.2-6.9,1.1-10.4,0-4.2,3-6,5.6-8.1.9-.7,3.2-.4,4.5.2.7.3,1,2.1,1.1,3.3.5,4.7,1,9.4,1.1,14.1.2,5.7.3,11.5-.3,17.1-.2,1.4-2.9,3.3-4.8,3.7-2.8.7-5.1,1.6-4.2,4.8.8,2.9,1.3,6.4,6.2,5.1,6.4-1.8,11.7-7.2,12.9-13.8,0-.6.2-1.1.3-1.7l3.7.2c.1,1.1.3,2.2.5,3.3.3,1.5,1.4,4.2,1.7,4.2,2.2-.4,4.5-1,6.3-2.3.9-.6,1-2.9.7-4.3-.7-3.2-1.9-6.3-2.7-9.5-.7-2.9-1.7-4.7-5.2-4.8-4.6-.2-7.3-2.8-7.6-7.6-.2-3.5-.5-7.1-.7-10.8,0-.9.9-1.5,1.7-1,3.5,2.3,6.3,4.3,9.4,5.9,3.3,1.8,3.1,4.6,3.7,7.6.4,2.1,1.8,5.4,3.1,5.5,3.3.4,3.5-2.7,4.2-5.5,1.4-5.6-.5-9.6-4.2-13.5-2.7-2.8-2.8-4.9,1.8-6.3,2.3-.7,4.3-3.2,6.1-5.2,6-6.5,11.7-13.4,17.9-19.6,2.7-2.7,11.2-1,14.3,2.2,2,2,3.9,4.5,7.2,2.8,3.5-1.9,2.9-5.1,2.6-8.4-.2-2,0-5.8.6-5.9,2.9-.5,6.1-1.5,8.6,2,.9,1.2,3.5,1.9,5.2,1.8,3.8-.2,7.1-.7,9.7,3.1,3,4.4,1.7,11.1-3.2,15-2.9,2.3-5.8,4.9-8.2,7.7-.7.8-.5,2.2-.5,3.6,0,.6.6,1.1,1.2,1.1,1.3-.1,2.5-.2,3.7-.6,1.1-.3,2.1-1.1,2.9-1.9,4-4.7,8.1-3.2,11.6.2,4.3,4.1,9,6,14.8,5.6,2.3-.1,4.6,1,6.9.9,2.7,0,5.6-.3,8-1.4,4.8-2.2,9.7-1,10,4.3.4,9.3,5.3,10.8,12.8,10,.7,0,1.3.1,2,.2,3.8.4,8.2,2.3,11.1.9,2.4-1.2,3-6.1,4.4-9.4,1.2-2.8,3-3.3,5.5-1.3,3.7,2.9,7.4,4.3,12.4,3,4.2-1.1,7.6,1.2,9.3,5.6,2.1,5.3,5.7,6.9,11.1,4.6,4.6-1.9,8.2-3.3,10.6,3.2.7,1.9,4.5,2.9,7,4,6.2,2.6,12.7,4.8,18.8,7.7,5.7,2.7,6.9,2.7,9.9-2.8,1.9-3.4,4-4.5,7.9-2.4,7,3.8,14.5,6.9,21.7,10.6,1.5.8,2.4,3,3,4.7,1.8,5.4,2.3,5.4,7.7,3.7,1.2-.4,2.9,1,4.5,2,.5.3.7.9.4,1.4-.9,2-1.7,4.2-3.1,5.8-.7.8-3.3.7-4.7.2-3.5-1.4-6.8-3.5-10.4-4.9-1.3-.5-3.8-.7-4.5,0-3.1,3.6-7.6,6.7-6.3,12.7,1,4.6-.9,7.1-5.5,8.7-3.7,1.3-6.5,4.9-10.2,6.8-6.1,3.1-12.2,6.9-18.8,8.1-7.7,1.4-8.2.6-7.6,8.8.6,7,.4,13.6-6.9,17.8-1.8,1-3,3-4.7,5.3-.5.7-1.7.5-1.9-.4-.4-1.6-.8-2.7-.8-3.9,0-6.8.7-13,6.2-18.4,4-3.9,6.6-9.3,9.7-14.3.4-.6,0-1.4-.5-1.6-9.6-3.5-13.8-2.1-19.4,6-2.5,3.6-4.8,5-8.3,1.5-.5-.4-1.3-1-1.8-.8-8,2-17.1-2.6-24,2.7-5.3,4.1-9.1,10.4-12.8,16.2-1.8,2.9-2.5,6.9,2.6,9,1.7.7,2.9,3.6,3.5,5.7,3.6,14-9.3,32.3-19.1,34.9-8.3,2.2-13.1,11-11.9,19.8,0,.8,0,1.6-.2,2.5-.2,1-1.6,1.1-2,.2-2-4-3.7-7.4-5.4-10.8-.3-.6-1.7-1.4-1.8-1.2-5,4.5-8-5.5-12.9-1.8-.4.3-.9.6-1.2,1-1.2,1.6-2.3,3.3-3.4,4.9-.4.5-.2,1.3.4,1.6,1.9.9,3.7,1.9,5.6,2.8.3.2.7.3,1.1.5.6.2.8.9.6,1.4-.2.6-.5,1.2-.8,1.6-4.4,5.6-4.6,11.6-1.3,18,.8,1.6,1,4.2.2,5.7-5.9,11.7-15.7,17.4-28.8,18-2.8.1-7.7,1-7.9,2.2-.6,3.6.2,7.7,1.2,11.4.7,2.6,3,4.8,4.1,7.3,1.8,3.9.2,7.3-3,9.6-3.2,2.3-5.6-.1-7.8-2.2-1.8-1.8-3.6-3.5-5-5.6-1.5-2.3-3.5-3.8-5.6-1.7-1.6,1.5-3.2,4.8-2.6,6.4,1.8,4.9,4.6,9.5,7.1,14.1,0,0,0,0,0,0,.6,1.1-.8,2.2-1.7,1.3-4.1-4.3-6.4-9.7-7.1-16-.3-3.3-.8-6.6-1.2-9.9-.5-3.6-1.1-7.5-5.8-7.1-1.1.1-2.8-1.3-3.6-2.4-3.1-4.4-5.9-8.5-12.3-8.9-4-.2-7.2,0-9.9,3.1-.5.6-1.2,1.3-1.9,1.6-7.7,4-10.8,11.2-14,18.7-1.1,2.6-3,4.8-5.2,7.7-.5.7-1.5.6-1.9-.2-3-7-5.8-12.9-7.9-19-3.4-9.9-17.1-24.2-29.6-24.7-7.4-.3-14.8-3.4-22-5.8-1.9-.6-3.5-3-4.6-4.9-3.1-5.5-5.3-6.8-12.2-5.7-.7.1-1.1.9-.8,1.5,2.4,5.1,1,11.9,8.5,14.1.6.2,1.1,1.1,1.5,1.8,3,6.9,4,7.1,10.2,2.6.2-.2.5-.3.9-.4.4-.1.9,0,1.1.3,1,1.1,2,2.4,3.2,3.4,5,4.4,5,4.8.2,9.3-8.4,8.1-19.4,9.8-30,12.5-1.3.3-3.9-1.5-4.8-3-7-11.6-13.6-23.5-20.7-35.1-.7-1.1-2.6-1.4-4.3-1.9-.7-.2-1.3.3-1.3,1,0,1.5-.1,3,.3,4.3,2,6.1,4,12.2,6.5,18.1,2.2,5.1,5,10,7.6,15,.4.8,1.5,1.3,2.4,1.6,3.1.9,4.1,2.9,3.9,6-.2,3.1,1.5,3.9,4.2,5.7,5.5,3.8,10.2,1.5,16,.2.8-.2,1.6.6,1.3,1.4-.8,2.1-1.3,3.8-2.3,5.1-6.5,8-12.8,16.2-19.9,23.7-6.2,6.4-8,13.1-4.7,21.3.9,2.3,1.6,4.7,2.4,7.1,2.5,7,2.3,7.5-4.1,11.4-1.8,1.1-3.6,2.3-5.6,3.1-3.9,1.7-2.8,5-3.1,8.1-.2,2.1-1.4,4.3-2.5,6.2-1.1,1.9-2.7,3.6-3.8,5.5-3.6,5.7-6.8,11.8-10.9,17.1-3.1,3.9-7.7,6.2-13.1,5.6-.4,0-.8,0-1.3,0-7.8.5-7.7.4-10.5-7.2-4.2-11.3-8.9-22.4-12.7-33.8-1.3-3.9-1.8-9-.5-12.7,4.2-11.5-.7-20.9-5.5-30.4-1.8-3.6-3.2-6.7-2.2-10.8.8-3.2.3-5.6-3.8-6.5-2.8-.6-5.5-2.6-7.6-4.6-2.7-2.5-5.2-1.9-8.2-1.4-4,.6-8,.4-12.1.5-2.7,0-5.8-1-8.2-.1-4.9,1.7-8.5.4-11.7-3-4.6-5-9-10.1-13.3-15.3-1.1-1.3-1.9-3.4-1.7-5,1-11.8-.1-23.8,9.9-33.4,6.1-5.8,9.9-13.9,15-20.7.9-1.2,3.6-2.1,5.1-1.7,4.8,1.2,9-.4,13.5-1.4,6.9-1.5,14.1-1.7,21.2-1.6,3.7,0,2.9,3.4,1.8,5.8-1.8,3.8-.6,4.8,3.4,5.2,4.9.5,9.7,2.1,14.5,3,2,.4,4.9,1.1,6.1.1,3.3-2.8,5.9-1.2,9.2-.2,6.3,1.9,12.8,3.7,19.3,4.7,6.5.9,13.9-9,11.6-15.3-.5-1.4-2.4-2.9-3.9-3.3-3-.9-6.3-1.9-9.3-1.5-5.5.8-6.5-2.5-7.2-6.1-.3-1.6.7-3.6,2.1-4.4,6-3.2,12.1-5.6,19.2-3.7,2.5.7,5,1.2,7.6,1.3,5.5.4,7.4-3,4.3-7.5-2.7-3.9-5.5-7.7-8.5-11.4-2-2.4-4.5-1.6-5.7,1.6-.2.5-.5,1-.9,1.4s-1,.6-1.4.3c-.7-.4-1.3-.8-1.7-1.4-2.7-3.9-5.5-4.2-8.1,0-2.4,3.9-3.9,8.3-6.3,12.2-1.2,2-3.1,4.4-5.1,4.9-4.1.9-5.7,2.8-5.6,6.8,0,.4-.3.8-.9,1.7-.4.6-1.3.6-1.8,0-2.2-2.9-4.4-5.2-5.3-7.9-1.6-4.8-4.1-8.1-8.7-10.2-1.7-.8-2.9-2.8-4.6-3.7-1-.6-2.3-.8-3.5-1.1-.6-.1-1.2.3-1.3,1-.1,1.4-.4,2.9.3,3.7,2.2,2.6,5,4.7,7.6,7,.8.7,1.8,1.3,2.8,1.9.5.3.7.9.4,1.4-.7,1.3-1.3,2.5-1.8,3.5-.3.7-1.3.8-1.8.2-4.5-5-9-10-13.5-14.9-1-1-3.1-2.6-3.5-2.2-5.5,4.2-15.6.8-17.9,10.3,0,.3-.3.6-.5.7-6.1,3.2-7.8,11.6-15.6,13.2-4.4.9-8.5-.6-9.8-5-.4-1.3-.6-2.6-.6-3.9-.6-13.3-1-12.6,10.8-10.5,3.7.7,5.3-1,5.8-4.4.6-4.9-.3-8.9-6-11.4h0ZM632.2,211.5c.5,0,1-.4,1.1-1,1-9.8-3-13.4-12.4-11.3-1.1.2-2.3.6-3.4.9-7,2.1-8.8,7.4-5.3,13.9,2.7,5.1,5.5,10.5,6.8,16.1,1.2,5.1,3.1,7.8,8.8,7.6,4.5-.2,6.6-2.6,5.7-7.9-.6-3.7-2.2-7.2-3.6-10.7-.8-1.9-1.7-3.8-2.7-5.9-.3-.7.2-1.6,1-1.6h4.1ZM651.1,201.2c-.2-.1-.4-.2-.7-.2-4.5.2-8.7,3.9-8,7.5.6,3.1,3.4,5.9,5.4,8.7.2.2,2.3-.3,2.5-.8,1.4-4.1,2.8-8.2,3.5-12.4.1-.9-1.8-2.1-2.7-2.7Z"/>
            <path class="cls-2" d="M336.1,200.1c-3.1,1-5.7,1.2-7.5,2.6-4.7,3.6-8.8,8.1-13.7,11.6-5,3.5-7.5,7.7-7.9,13.9-.2,2.5-2.7,5.3-4.8,7.2-5.1,4.7-7.9,10-7,17.2.3,2.3-.4,4.7-.8,7.1,0,.6-.5,1-1.1,1.1h0c-.6,0-1.2-.2-1.4-.8-.6-1.3-1.3-2.7-.9-3.6,1.5-3.7-.6-6.3-3-7.6-2.3-1.2-5.6-1.1-8.4-.9-4,.4-7.9,2.1-11.9,2.2-14.2.3-21,11.5-14.4,24.1,3.1,5.9,11.7,8.5,17.7,5.4,1.3-.7,2.6-1.3,3.9-2,1.4,1.3,1.5,1.4,2.9,2.7-.1.3-.3.7-.5,1-2.1,3.8-1,6.2,3.3,7.2,9.7,2.1,9.6,2.1,9.4,12,0,1.3,1.1,3.7,2.1,3.9,4.8.8,9.9,1.9,14.6,1.3,1.8-.2,3.4-1.5,5-3,1-.9,2.5.1,2.1,1.4h0c-.1.6.3,1.2.8,1.1,1.6,0,3,0,3.9-.6,6.5-4.6,13.5-1.8,20.2-1.2,2.4.2,4.6,2.9,6.8,4.5,3,2.2,5.7,5.1,9,6.4,5.5,2.2,9.1,5.9,12.8,10.5,4,4.9,9.8,8.5,15.2,12.2,1.2.8,3.8-.3,5.8-.6,5.8-1.1,10.2,1,13,6.1,2.1,3.9,6.2,7.4,3.1,12.6-.5.8-.9,2.2-1.6,2.4-8,2.5-7.8,10-9.4,16.1-1.6,6-2.6,10.8-10,13-7.1,2.2-12.4,7.2-13.6,16.4-.8,6.1-5.3,11.6-8.7,17.8-.4.7-1.3.9-1.9.4-1.6-1.2-3.1-2.3-4.9-3.5-.8-.6-1.9-.1-2.1.8-.4,2.2-.7,4-.8,5.9-.2,4.7-1.2,8.2-6.9,9.2-2.9.5-5.1,4.2-8,5.2-5,1.7-2.2,5.5-3.1,8.3-.7,2.1-2.1,4.6-3.9,5.6-3.3,1.8-4.2,3.5-3.7,7.4.5,4-.4,8.5-1.5,12.5-1.1,4-3.2,7.6-4.9,11.4,0,.2-.2.3-.4.4-.5.4-1.3.3-1.7-.2-3.5-3.8-6.6-7.5-6.3-13.5.4-6.7-1.2-13.5,1.5-20.2.9-2.2.4-5.5-.7-7.7-2-3.9-1-7.2.2-11,3.2-9.6,7.3-19.1,8.7-29,1.3-8.9-.3-18.2-1.1-27.3-.1-1.8-1.9-3.9-3.4-5.2-6.3-5.2-11.5-11-14.4-18.8-.6-1.8-2.2-3.3-3.8-4.5-2.8-2.2-4.2-5.2-3.1-8.3,2-5.9,4.2-11.8,7.2-17.1,2-3.7,2.4-10.5-.9-13.2-.6-.5-2-.9-2.7-.6-5.8,3-8.4-1.8-11.8-4.7-4.4-3.8-8.3-8.1-12.9-11.6-2.4-1.8-5.6-3-8.7-3.5-8.7-1.5-16.7-4.4-23.4-10.3-2.3-2-4.3-4.6-6-7.2-4.1-6.2-7.9-12.7-11.9-19-.4-.7-.9-1.6-1.6-1.9-1.2-.6-2.5-1.1-3.8-1.6-.8-.3-1.7.3-1.8,1.2,0,1.3,0,2.6.4,3.7,1.7,3.8,3.8,7.4,5.8,11.1.2.4,0,.8-.2,1h0c-.4.3-.9.2-1.1-.2-2.4-3.6-5.2-7-6.7-10.9-3.4-8.9-8.3-16.6-15.8-22.6-5.3-4.2-5.6-10.3-6.1-16.3-.5-6.1-.7-12.3-1-18.4,0-1.1,0-2.4.5-3.4,2.9-5.7.2-9.6-4-13-5-4-8-9.1-10.4-14.9-2.2-5.2-4.4-10.8-8.2-14.7-3.4-3.6-8.7-5.6-13.5-7.6-5.6-2.4-11.6-3.9-17.3-6.1-3.4-1.3-5.4-1.1-5.7,3.1,0,1.4-1,2.7-1.6,4.1-.4-.1-.8-.3-1.2-.4.5-2.7,1-5.3,1.6-8.5.2-1.1-.9-1.9-1.9-1.4-4.4,2.4-6,6-6.3,10-.2,3.2-1.5,4.7-3.9,6.2-3.7,2.4-7.2,5-11.4,8-.8.5-1.8.2-2-.7-1.4-5.3-2.5-9.7-4-14-.8-2.2-2.6-4.1-3.8-6.2-1.2-2.1-3.2-4.2-3.2-6.3,0-1.3,3.2-2.6,5.2-3.7,1.1-.6,2.8-.5,3.7-1.3,1.7-1.6,4-3.5,4.1-5.4,0-1.8-2.1-4-3.8-5.5-1.1-.9-3.1-.8-4.7-1.2-1.4-.4-3.3-.4-4.1-1.3-.8-1-1.2-2.3-1.6-3.6-.2-.8.2-1.6,1-1.7,1.2-.2,2.4-.4,3.3,0,3.4,1.8,6.6,2.6,9-1.1.8-1.2.8-4.1-.1-4.9-2.8-2.7-6.3-4.6-9.2-7.2-2.6-2.3-2.4-4.7.6-6.9,3.3-2.4,6.7-4.9,9.6-7.8,5.9-5.9,12.4-3.7,19-2.1,6.6,1.6,13.2,3.8,19.9,4.5,6.3.6,11.6,2.5,16.2,6.7,2.5,2.3,5,2.7,7.4.1,3.5-3.8,7.6-6,12.9-5.2.6,0,1.2-.3,1.4-.9l.7-2.3c.3-1.1,1.8-1.3,2.4-.3.6,1.1,1.1,2,1.5,2.9.9,2.4,1.8,3.7,5,3.1,2.5-.4,5.3,1.4,8,1.9,7.9,1.3,12.4,8.1,19.2,11.2,3.8,1.7,6.8,1.8,9.1-1.7,3-4.5,6.8-4.6,11.3-2.8,3.8,1.5,7.7,2.7,11.6,3.9,2.3.7,11.4-3.7,12.6-6.1,2.3-4.5,1.3-8.4-2.7-11.4-.4-.3-.9-.6-1-1.1-.6-1.9-1.2-3.9-1.5-5.9,0-.3,2-1.5,2.2-1.3,1.5,1.4,3.3,2.8,4,4.7,2,5,3,10.6,8.4,13.5.6.3.8,1.4,1.4,2,1.4,1.7,3.6,4.9,4.3,4.6,2.4-1,4.4-3.1,6.3-5,.8-.7.6-2.4,1.4-3.1.6-.4,2.9.2,2.9.4,0,4.4,0,8.8-.3,13.2,0,.7-1.9,1.6-3,1.9-4.8,1.3-9.6,2.4-14.4,3.7-.4,0-.7.3-1.2.7-.8.5-.7,1.7,0,2.2l2.7,1.8c.8.5.8,1.7,0,2.2-1.5,1-2.9,1.9-4.4,2.1-5.7.8-8.4,4.6-10,9.3-1.8,5.5-3.1,11.2-4.3,16.8-.5,2.3.3,5.6,3.5,4.4,5.6-2.1,6.5.5,6.4,5,0,.5.1,1,.3,1.6.2.7.9,1.1,1.6.9,4.4-1,6.9,1.5,9.2,5.3,1.2,1.9,4.6,2.8,7.2,3.5,4.1,1,7.6,1.2,6.5,7.5-.4,2.2,3.2,5,5.4,7.6.3.4.7.5,1.2.5h.7c.5-.1.9-.5,1-.9,1.2-3,3-5.9,3.2-8.9.5-7.6-.1-15.2.1-22.8.2-5.1,1-10.2,1.6-15.6,0-.8.8-1.3,1.6-1.1,3.9.9,7.3,1.3,10,2.9,2.5,1.5,4.6,4.6,5.6,7.4,1.2,3.7,3.1,6.1,6.4,7.7,2.6,1.3,4.9,2,5.8-.8.4-1.1,1.8-1.2,2.4-.2,2.5,4.5,4.6,8.4,7,12.1,1.5,2.4,3.3,4.4,5.5,6.1,4,3.1,5.1,6.5,2.9,11.3-2,4.5-6.2,6.7-11,5.2-4.4-1.4-8.6-1.9-12.1,1.5-1.6,1.5-2.4,3.8-3.6,5.8h1.2c.4-.2.9,0,1.1.3,1.7,1.9,3.4,3.8,5.2,5.6,1,1,2.4,1.7,3.5,2.6M288.1,201.2c.3-.2.2-.6,0-.8-2.6-1.6-4.5-2.8-6.4-4-1.8-1.1-4.5-1.8-5.3-3.5-3-6-8.7-4.8-13.5-5.4-1.5-.2-3.2,1.8-4.8,3.1-.3.2-.3.6,0,.8,1.3,1.1,2.6,2.5,4,2.6,5.3.4,4.8,3.2,3.6,6.8-.7,2.3-1.4,4.9-1.2,7.2.1,1.3,1.6,2.5,2.7,3.7.2.2.5.2.7,0,1.2-.9,2.7-1.7,3.5-2.9,1.1-1.8,1.7-3.9,2.9-7,.2-.4.8-.4.9,0,1.2,2.6,2,4.4,3.2,6.9.1.3.5.4.8.2,2.9-2.5,5.6-4.8,9-7.8h0ZM196.9,119.5c0,.3.2.7.6.6,3.7-.7,7-.8,9.6-2.2,3.2-1.8,5.7-4.8,8.1-7.7.5-.6-.5-3.2-1.5-4.1-5.7-4.7-18.1-.1-20.4,7.4,0,.3.1.6.4.6,1.2.3,2.4.5,3.6.8.3,0,.4.3.4.6-.2,1.3-.4,2.6-.7,4h0ZM213.9,131.1c-.3-.2-.6,0-.8.3-.5,1.4-.9,2.5-1,3.6-.2,3.8,1.4,8.1-3.5,10.5-.3.2-.4,1.9,0,2.2.7.5,2,1,2.6.6,4.9-2.5,9.1-5.7,12.3-10.4.2-.2,0-.6-.1-.7l-9.5-6h0ZM245.8,183.8c.2.3.7.3.9,0,2.2-4.5,2.1-16-.4-17.9-1.2-.9-3.9-.6-5.6,0-1,.4-2,3.6-1.8,3.7,3.6,2.2,3,5.9,3.6,9.2.4,1.7,2,3.2,3.3,5h0Z"/>
            <path class="cls-2" d="M437.9,76.5c-1.8-1.6-3.4-3.2-5-4.7-.5-.4-1.2-.5-1.7,0-2.5,2-4.9,3.9-7.5,6-.7.6-.6,1.8.3,2.2,3.8,1.8,7.5,3.5,11.9,5.6.9.4,1,1.7.2,2.2-1.4,1-2.6,1.9-3.9,2.3-10.4,4-19.2,9.7-26.3,18.7-4,5.1-9.3,9.3-12.2,15.3-1,2.1-2,4.4-2.8,6.6-1.2,3.2-1.8,7.1-6.2,7.4-4.5.3-8.7-.6-10.4-5.7-2.8-8.5-6.4-16.8-8.4-25.6-.8-3.5.9-8.3,2.9-11.7,2.6-4.6,3.4-8.1-1.3-11.6-.7-.5-1.2-1.4-1.8-2.6-.5-1,.4-2.1,1.5-1.8l1.9.6c.8.2,1.6-.2,1.7-1,.9-5.4-2.5-9.2-8-9-.6,0-1.1-.4-1.3-.9-1.4-5.5-2.9-11-4.3-16.5-1.2-4.8-2.3-9.7-3.6-14.5-1.3-4.7-5.2-6.3-9.6-6.7-3.5-.3-7,.3-10.5,0-1.6-.2-3-1.1-4.5-1.9-.5-.3-.8-.9-.7-1.4h0c.1-.6.5-.9,1-1,1.4-.2,2.8-.6,4.2-.6,35.7-.2,71.3-.4,107-.5,4.3,0,6.9,6.5,4.1,10.9-2,3.1-4.3,5.7-1.8,9.9.6,1-2.6,5-4.8,6.5-1.9,1.2-4.9.6-7.3,1.2-2.7.6-3.2,2.2-1.1,4.2.9.9,2.4,2.1,2.3,2.9-.8,4.1,2.2,5.4,4.7,7.4,2.3,1.9,5,4,2.9,7.6-.4.7-1.4.9-2,.3h0Z"/>
            <path class="cls-2" d="M799.3,433.7c-1.7.3-3.3-.6-3.9-2.2-2.6-7-4.5-12.8-7-18.4-3.8-8.6-.7-16.5,8.5-17.5,9-1,14-7.4,20.5-11.9,1.4-1,3.7-.8,5.5-1.2,2.7-.7,5.6-1.1,8.1-2.3,3.4-1.7,6.2-4.5,9.6-6,3.6-1.7,6.1.3,6.2,4.3.2,5.5,8,12,13.1,10.6,1.2-.3,2.3-2.5,2.7-4,0,0,0,0,0,0,.7-2.5,3.7-3.5,5.6-1.9,3,2.5,5.9,5,6.4,9.9.3,3.1,4.8,6.1,7.8,8.5,10.6,8.5,13.5,18.8,7.2,29.6-3,5.1-5.7,10.4-8.9,15.3-1.9,3-4.9,3-8.6,3-6.4,0-9.3-3.4-12.8-7.5-2-2.4-5.4-3.8-6-7-.3-1.4-1.5-2.5-2.9-2.7-1-.2-1.9-.2-2.5.2-2.8,1.8-4,1.5-6.4-1-2.2-2.3-6.2-3.5-9.5-3.9-3-.4-6.1,1.1-9.2,1.7-8.1,1.5-16.2,3.1-23.7,4.5h0Z"/>
            <path class="cls-2" d="M310.8,89.7c-6.4-4.4-12.4-9.6-21-9.6-4,0-10.8-5.9-11.4-9.2-1.3-7.1.1-12.4,4.4-15.6.6-.5,1.5-.1,1.8.6s.4,1.4.7,2.1c.3,1,.7,2,1,3,.2.7,1,1,1.6.6,1-.6,2-1.1,3-1.7.3-.2.6-.5,1-.8.6-.6,1.6-.3,1.9.5,2.8,8.4,10.8,5.7,16.8,6.5,4.9.7,7.6,1.4,6.8,7-.1,1.1,1.2,2.9,2.4,3.4,6.8,3.3,8.6,6.2,8.6,13.8,0,.9.7,2.2,1.5,2.8,4.4,3.2,9.3,5.8,13.3,9.4,1.9,1.7,2.4,5.1,2.9,7.8,0,.5-3.3,2.1-5.2,2.3-5.8.6-6,.7-4.9,6.2.2,1,.3,2.1.3,3.3,0,.8-.7,1.4-1.5,1.2-.7-.2-1.3-.4-1.9-.6l-2,2.7h0c.5.9-.1,1.9-1.1,1.8-6.7-.6-7.1-1.2-12.6-7.6-1.5-1.7-4.1-2.4-6.2-3.6-1.6-.8-3.1-1.7-4.7-2.5-.7-.4-.8-1.3-.3-1.8,1.4-1.5,2.8-3.1,4.5-3.7,6.4-2.2,7.9-6.3,3.7-12-.4-.6-1.2-.6-1.7-.2-.9.8-1.8,1.6-2.8,2.2-1,.5-2.5.5-3.5.2-.7-.2-1.5-1.8-1.3-2.3.5-.9,1.5-1.7,2.5-2.1.9-.3,1.8-.5,2.8-.7l.7-3.5h0Z"/>
            <path class="cls-2" d="M217.3,82.7s0,0,.1,0l-1.3-5.1h-2.1c-.9,0-1.6-.6-1.8-1.4-2-9.3,2.2-15.3,10.4-14.4,3.3.4,7,2.3,9.6,4.6,4.8,4.2,9.1,9,13.1,14.1,1.2,1.5.9,4.8.2,7-.3.9-3.3,1.1-5.1,1.3-4.3.3-8.6.3-12.9.5-3.9.2-7.1-1-10.5-3.3-1.1-.8-1-2.4.2-3.1h0Z"/>
            <path class="cls-2" d="M200.9,49.1c.7,0,1.5,0,2.2.2,2.3.4,4.7.6,6.8,1.5,6.2,2.6,6.6,6,1.6,10.4-2.1,1.9-3.9,4.1-5.6,6.3-2.4,3.1-8.1,5-10.5,2.8-2.9-2.7-4.1-5.8-1.2-9.6,1-1.3,1.4-3.4,1.3-5.2-.1-4.3,1.5-6.4,5.4-6.5h0Z"/>
            <path class="cls-2" d="M836.1,342.5c2.6,1.6,5,3.9,7.8,4.8,2.8.9,6,.1,8.9.7,2.7.6,5.3,1.9,7.8,3.1,3,1.6,5.8,3.5,8.6,5.2,2,1.2,4.1,2.1,5.8,3.6,1.5,1.4,2.4,3.3,3.3,4.6-5.1-.9-10.3-1.3-15.1-2.8-4.8-1.5-9.4-3.8-13.9-6.1-3.5-1.8-6.9-3.8-10-6.1-1.9-1.5-3-3.9-4.5-5.9.4-.4.8-.9,1.2-1.3h0Z"/>
            <path class="cls-2" d="M264.3,26c.3-.5.9-.6,1.4-.4,3.2,1.3,7.1,2.2,9,4.6,2.6,3.4,5.5,4.5,9.1,5.2,4.2.9,8.5,1.3,12.7,2.4,1.3.4,2.4,1.5,3.5,2.6.5.5.5,1.4-.1,1.8-1.4,1-2.8,2.1-4.4,2.6-2.5.9-5.4.9-7.9,1.8-5.5,2-14.3-2.7-14.9-8.3-.6-4.9-1.9-9-7.6-10.3l-.8-2h0c0,0,0,0,0,0Z"/>
            <path class="cls-2" d="M613,396.9c-2.6,2.5-7,.9-7.8-2.6-.9-4.2.8-8.4.7-12.4,0-1,2.1-2.4,3.5-2.8,3.1-1,5.5-2,5.8-5.8,0-1,.9-2.4,1.7-2.9,1.2-.7,2.8-1.1,4-.8.6.1,1.3,2.4,1,3.3-2.5,7.7-5,15.4-8.1,22.9-.2.4-.4.8-.8,1.1h0Z"/>
            <path class="cls-2" d="M439.4,116.8c-.9-2-.4-4.4,1.3-5.7.3-.2.6-.4.9-.5,3.2-.8,6.6-1,9.9-1.2,2.2,0,4.8-.2,6.7.7,2.9,1.4,4,3.7.9,6.6-5.7,5.5-11.7,6.6-18.1,2.4-.7-.5-1.1-1.3-1.6-2.4h0Z"/>
            <path class="cls-2" d="M269.7,52.8l.3.2c2.5,1.5,2.9,5,.8,7h0c-2.2,2.1-5.7,1.4-7-1.3-.4-.8-.6-1.5-.8-2.3-.1-.7.5-1.6,1.3-2.5,1.4-1.6,3.7-2,5.5-.9h0Z"/>
            <path class="cls-2" d="M946.4,467.6c-.4,1.6-.3,4.1-1.3,4.7-3.9,2.3-8.2,4-7.2,10.7-.7-.3-1.4-.5-2.1-.8-.7-1.5-2.3-3.2-1.9-4.3,2-5.4,6.3-8.5,11-11.1.5.3,1,.6,1.5.9Z"/>
            <path class="cls-2" d="M287.4,25.9c5,.2,10,.4,15,.8.6,0,1.7,2.1,1.5,2.3-.9.9-2.3,2.4-3.2,2.2-4.4-1.2-8.8-2.9-13.1-4.5,0-.3-.2-.5-.3-.8h0Z"/>
            <path class="cls-2" d="M959.6,455.3c-2.2.9-4.1,1.6-6,2.3-.5-2.9-1-5.8-1.5-8.6.5-.1,1-.3,1.5-.4,1.8,2,3.5,3.9,6,6.7h0Z"/>
            <path class="cls-2" d="M746.3,345.7c2.3,2,4.4,4.6,7,5.9,2.6,1.3,5.9,1,8.7,2,2.6,1,5,2.6,7.2,4.3,2.7,2,5.2,4.3,7.8,6.5,1.8,1.5,3.8,2.7,5.2,4.5,1.3,1.6,1.9,3.6,2.6,5.1-4.9-1.6-10-2.8-14.5-5-4.5-2.2-8.7-5.2-12.8-8.1-3.2-2.3-6.3-4.7-9-7.6-1.6-1.7-2.4-4.3-3.5-6.5.5-.4.9-.7,1.4-1.1h0Z"/>
          </g>
          <g class="cls-4">
            <text class="cls-8" transform="translate(335.2 224)"><tspan x="0" y="0">73.5 cm</tspan></text>
          </g>
          <g class="cls-4">
            <text class="cls-3" transform="translate(307.1 254.4)"><tspan x="0" y="0">M</tspan></text>
            <text class="cls-6" transform="translate(314.5 254.4)"><tspan x="0" y="0">iami</tspan></text>
          </g>
          <g class="cls-4">
            <text class="cls-8" transform="translate(307.1 266.5)"><tspan x="0" y="0">86 cm</tspan></text>
          </g>
          <g class="cls-4">
            <text class="cls-6" transform="translate(673.9 261.5)"><tspan x="0" y="0">M</tspan></text>
            <text class="cls-6" transform="translate(682.2 261.5)"><tspan x="0" y="0">umbai</tspan></text>
          </g>
          <g class="cls-4">
            <text class="cls-8" transform="translate(674.9 273.6)"><tspan x="0" y="0">91 cm</tspan></text>
          </g>
          <g class="cls-4">
            <text class="cls-6" transform="translate(814.9 255.5)"><tspan x="0" y="0">Shangái</tspan></text>
          </g>
          <g class="cls-4">
            <text class="cls-8" transform="translate(814.9 267.6)"><tspan x="0" y="0">102 cm</tspan></text>
          </g>
          <g class="cls-4">
            <text class="cls-8" transform="translate(390.6 403.4)"><tspan x="0" y="0">69 cm</tspan></text>
          </g>
          <g>
            <g class="cls-24">
              <image id="image" class="cls-4" width="512" height="512" transform="translate(538.3 228.6) rotate(-179.1) scale(0)" xlink:href="mapitafinal-1.png"/>
            </g>
            <path class="cls-7" d="M525.9,206.9l-1.3,1.4-1.3,2.2-1.2,1.7-1.2,1.3s-1.2,2-1.3,3.4,0,3.8,2.2,5.5,4,1.4,4,1.4c0,0,2.8.5,5.1-2.6s.5-6.7.5-6.7l-1.5-2-.7-1-.4-.8-1.2-2.2-1-1.3-.5-.5h-.3Z"/>
          </g>
          <g class="cls-4">
            <text class="cls-5" transform="translate(523 189)"><tspan x="0" y="0">V</tspan></text>
            <text class="cls-6" transform="translate(528.8 189)"><tspan x="0" y="0">enecia</tspan></text>
          </g>
          <g class="cls-4">
            <text class="cls-8" transform="translate(524 201)"><tspan x="0" y="0">50 cm</tspan></text>
          </g>
          <g class="cls-4">
            <text class="cls-6" transform="translate(784.9 299.8)"><tspan x="0" y="0">Bangkok</tspan></text>
          </g>
          <g class="cls-4">
            <text class="cls-8" transform="translate(784.9 311.9)"><tspan x="0" y="0">119 cm</tspan></text>
          </g>
          <g class="cls-4">
            <text class="cls-8" transform="translate(693.9 380.6)"><tspan x="0" y="0">110 cm</tspan></text>
          </g>
          <g class="cls-4">
            <text class="cls-6" transform="translate(534.3 346.4)"><tspan x="0" y="0">Lagos</tspan></text>
          </g>
          <g class="cls-4">
            <text class="cls-8" transform="translate(534.3 358.4)"><tspan x="0" y="0">65 cm</tspan></text>
          </g>
          <g class="cls-4">
            <text class="cls-8" transform="translate(897.4 448)"><tspan x="0" y="0">60 cm</tspan></text>
          </g>
          <g>
            <g class="cls-12">
              <image id="image-2" data-name="image" class="cls-4" width="512" height="512" transform="translate(536.9 364.6) rotate(-179.1) scale(0)" xlink:href="mapitafinal-2.png"/>
            </g>
            <path class="cls-7" d="M523,340.4l-1.4,1.5-1.4,2.5-1.3,1.9-1.3,1.5s-1.4,2.2-1.5,3.8.1,4.2,2.5,6.1,4.4,1.6,4.4,1.6c0,0,3.2.5,5.7-2.9s.6-7.5.6-7.5l-1.7-2.2-.8-1.1-.5-.9-1.3-2.4-1.2-1.5-.5-.5h-.3Z"/>
          </g>
          <g>
            <g class="cls-15">
              <image id="image-3" data-name="image" class="cls-4" width="512" height="512" transform="translate(394.5 410.1) rotate(-179.1) scale(0)" xlink:href="mapitafinal-3.png"/>
            </g>
            <path class="cls-7" d="M380.6,385.9l-1.4,1.5-1.4,2.5-1.3,1.9-1.3,1.5s-1.4,2.2-1.5,3.8.1,4.2,2.5,6.1,4.4,1.6,4.4,1.6c0,0,3.2.5,5.7-2.9s.6-7.5.6-7.5l-1.7-2.2-.8-1.1-.5-.9-1.3-2.4-1.2-1.5-.5-.5h-.3Z"/>
          </g>
          <g>
            <g class="cls-13">
              <image id="image-4" data-name="image" class="cls-4" width="512" height="512" transform="translate(900.1 453.7) rotate(-179.1) scale(0)" xlink:href="mapitafinal-4.png"/>
            </g>
            <path class="cls-7" d="M886.3,429.5l-1.4,1.5-1.4,2.5-1.3,1.9-1.3,1.5s-1.4,2.2-1.5,3.8,0,4.2,2.5,6.1c2.3,1.9,4.4,1.6,4.4,1.6,0,0,3.2.5,5.7-2.9s.6-7.5.6-7.5l-1.7-2.2-.8-1.1-.5-.9-1.3-2.4-1.2-1.5-.5-.5h-.3Z"/>
          </g>
          <g>
            <g class="cls-14">
              <image id="image-5" data-name="image" class="cls-4" width="512" height="512" transform="translate(341.1 232.4) rotate(-179.1) scale(0)" xlink:href="mapitafinal-5.png"/>
            </g>
            <path class="cls-7" d="M325.2,204.6l-1.6,1.8-1.6,2.9-1.5,2.2-1.5,1.7s-1.6,2.6-1.7,4.4.1,4.8,2.8,7,5.1,1.9,5.1,1.9c0,0,3.6.6,6.5-3.3,2.9-3.9.7-8.6.7-8.6l-1.9-2.5-.9-1.3-.6-1-1.5-2.8-1.3-1.7-.6-.6h-.3Z"/>
          </g>
          <g>
            <g class="cls-20">
              <image id="image-6" data-name="image" class="cls-4" width="512" height="512" transform="translate(312.9 277.4) rotate(-179.1) scale(0)" xlink:href="mapitafinal-6.png"/>
            </g>
            <path class="cls-7" d="M294.8,245.9l-1.9,2-1.8,3.3-1.7,2.5-1.7,1.9s-1.8,2.9-1.9,5,.1,5.5,3.2,8,5.8,2.1,5.8,2.1c0,0,4.1.7,7.4-3.7,3.3-4.4.8-9.8.8-9.8l-2.2-2.9-1.1-1.5-.6-1.1-1.7-3.2-1.5-1.9-.7-.7h-.4,0Z"/>
          </g>
          <g>
            <g class="cls-17">
              <image id="image-7" data-name="image" class="cls-4" width="512" height="512" transform="translate(693.4 311.5) rotate(-179.1) scale(0)" xlink:href="mapitafinal-7.png"/>
            </g>
            <path class="cls-7" d="M673.9,277.6l-2,2.2-2,3.5-1.8,2.7-1.8,2.1s-1.9,3.1-2.1,5.3.1,5.9,3.4,8.6,6.2,2.3,6.2,2.3c0,0,4.4.7,8-4,3.6-4.7.8-10.5.8-10.5l-2.3-3.1-1.2-1.6-.7-1.2-1.8-3.4-1.6-2-.7-.8h-.4,0Z"/>
          </g>
          <g>
            <g class="cls-16">
              <image id="image-8" data-name="image" class="cls-4" width="512" height="512" transform="translate(822.9 284.4) rotate(-179.1) scale(0)" xlink:href="mapitafinal-8.png"/>
            </g>
            <path class="cls-7" d="M800.1,244.6l-2.4,2.5-2.3,4.1-2.2,3.2-2.1,2.5s-2.3,3.7-2.4,6.2.2,7,4,10.1c3.9,3.1,7.3,2.7,7.3,2.7,0,0,5.2.9,9.4-4.7,4.2-5.6,1-12.4,1-12.4l-2.8-3.6-1.3-1.8-.8-1.4-2.2-4-1.9-2.4-.8-.9h-.5Z"/>
          </g>
          <g>
            <g class="cls-19">
              <image id="image-9" data-name="image" class="cls-4" width="512" height="512" transform="translate(776.8 393.8) rotate(-179.1) scale(0)" xlink:href="mapitafinal-9.png"/>
            </g>
            <path class="cls-7" d="M753.9,353.9l-2.4,2.5-2.3,4.1-2.2,3.2-2.1,2.5s-2.3,3.7-2.4,6.2.2,7,4,10.1c3.9,3.1,7.3,2.7,7.3,2.7,0,0,5.2.9,9.4-4.7,4.2-5.6,1-12.4,1-12.4l-2.8-3.6-1.3-1.8-.8-1.4-2.2-4-1.9-2.4-.8-.9h-.5Z"/>
          </g>
          <g>
            <g class="cls-18">
              <image id="image-10" data-name="image" class="cls-4" width="512" height="512" transform="translate(796.4 331.1) rotate(-179.1) scale(.1)" xlink:href="mapitafinal-10.png"/>
            </g>
            <path class="cls-9" d="M768.8,282.9l-2.9,3.1-2.8,5-2.6,3.8-2.6,3s-2.7,4.4-2.9,7.6.2,8.4,4.9,12.2c4.7,3.8,8.8,3.2,8.8,3.2,0,0,6.3,1,11.4-5.7s1.2-14.9,1.2-14.9l-3.3-4.4-1.6-2.2-1-1.8-2.6-4.9-2.3-2.9-1-1.1h-.5,0Z"/>
          </g>
        </g>
      </g>
      <text class="cls-10" transform="translate(392.2 391.9)"><tspan x="0" y="0">Rio de Janeiro</tspan></text>
      <text class="cls-10" transform="translate(335.2 210.9)"><tspan x="0" y="0">Nueva</tspan><tspan class="cls-23" x="26" y="0"> </tspan><tspan class="cls-22" x="28.1" y="0">Y</tspan><tspan x="33.4" y="0">ork</tspan></text>
      <text class="cls-10" transform="translate(707.5 367.2)"><tspan x="0" y="0">Ja</tspan><tspan class="cls-26" x="9.5" y="0">k</tspan><tspan class="cls-11" x="14.2" y="0">a</tspan><tspan class="cls-25" x="19.2" y="0">r</tspan><tspan x="22.3" y="0">ta</tspan></text>
      <text class="cls-10" transform="translate(897.4 434)"><tspan x="0" y="0">Sydney</tspan></text>
    </g>
  </g>
</svg>